# xmcd CD database file
#
# Track frame offsets:
#	150
#	16185
#	37485
#	52600
#	68686
#	83236
#	112637
#	126662
#	141737
#	153065
#	165439
#	178189
#	194765
#	206841
#	218241
#	231816
#	249017
#	262417
#	280717
#	292793
#	305768
#
# Disc length: 4256 seconds
#
# Revision: 10
# Processed by: cddbd v1.5.2PL0 Copyright (c) Steve Scherf et al.
# Submitted via: CDex 1.73
#
DISCID=36109e15
DTITLE=Chet Atkins and Les Paul - Chester and Lester Guitar Monsters
DYEAR=1976
DGENRE=Country
TTITLE0=It's Been a Long, Long Time
TTITLE1=Medley: Moonglow, Picnic
TTITLE2=Caravan
TTITLE3=It Had to be You
TTITLE4=Out of Nowhere
TTITLE5=Avalon
TTITLE6=Birth of the Blues
TTITLE7=Someday Sweetheart
TTITLE8=Deed I Do
TTITLE9=Lover Come Back to Me
TTITLE10=Limehouse Blues
TTITLE11=I Want To Be Happy
TTITLE12=Over the Rainbow
TTITLE13=Meditation
TTITLE14=Lazy River
TTITLE15=I'm Your Greatest Fan
TTITLE16=It Don't Mean A Thing (If iIt Ain't Got That Swing)
TTITLE17=I Surrender Dear
TTITLE18=Brazil
TTITLE19=Give Me Love to Nell
TTITLE20=Hot Toddy
EXTD=YEAR: 1976
EXTT0=
EXTT1=
EXTT2=
EXTT3=
EXTT4=
EXTT5=
EXTT6=
EXTT7=
EXTT8=
EXTT9=
EXTT10=
EXTT11=
EXTT12=
EXTT13=
EXTT14=
EXTT15=
EXTT16=
EXTT17=
EXTT18=
EXTT19=
EXTT20=
PLAYORDER=
